<svg width="20" height="20" viewBox="0 0 20 20" fill="none" xmlns="http://www.w3.org/2000/svg">
<g id="google-fill 1" clip-path="url(#clip0_3_35)">
<path id="Vector" d="M2.55335 6.25832C3.2467 4.87769 4.31033 3.71708 5.62538 2.90621C6.94043 2.09535 8.45507 1.66617 10 1.66666C12.2459 1.66666 14.1325 2.49166 15.575 3.83749L13.1859 6.22749C12.3217 5.40166 11.2234 4.98082 10 4.98082C7.82919 4.98082 5.99169 6.44749 5.33752 8.41666C5.17085 8.91666 5.07585 9.44999 5.07585 9.99999C5.07585 10.55 5.17085 11.0833 5.33752 11.5833C5.99252 13.5533 7.82919 15.0192 10 15.0192C11.1209 15.0192 12.075 14.7233 12.8217 14.2233C13.2546 13.9383 13.6251 13.5685 13.911 13.1362C14.1969 12.704 14.3922 12.2182 14.485 11.7083H10V8.48499H17.8484C17.9467 9.02999 18 9.59833 18 10.1892C18 12.7275 17.0917 14.8642 15.515 16.3142C14.1367 17.5875 12.25 18.3333 10 18.3333C8.90555 18.3338 7.82172 18.1185 6.81047 17.6999C5.79923 17.2812 4.8804 16.6674 4.10649 15.8935C3.33258 15.1196 2.71877 14.2008 2.30013 13.1895C1.8815 12.1783 1.66625 11.0945 1.66669 9.99999C1.66669 8.65499 1.98835 7.38332 2.55335 6.25832Z" fill="black"/>
</g>
<defs>
<clipPath id="clip0_3_35">
<rect width="20" height="20" fill="white"/>
</clipPath>
</defs>
</svg>
